<?xml version="1.0" standalone="no"?>
<!DOCTYPE svg PUBLIC "-//W3C//DTD SVG 20010904//EN"
 "http://www.w3.org/TR/2001/REC-SVG-20010904/DTD/svg10.dtd">
<svg version="1.0" xmlns="http://www.w3.org/2000/svg"
 width="1159.000000pt" height="1159.000000pt" viewBox="0 0 1159.000000 1159.000000"
 preserveAspectRatio="xMidYMid meet">
<metadata>
Created by potrace 1.14, written by Peter Selinger 2001-2017
</metadata>
<g transform="translate(0.000000,1159.000000) scale(0.100000,-0.100000)"
fill="#000000" stroke="none">
<path d="M5560 8254 c-25 -2 -115 -8 -200 -15 -995 -71 -2064 -455 -3250
-1167 -545 -328 -1159 -753 -1803 -1251 l-228 -176 28 -20 c111 -82 490 -347
688 -480 2335 -1576 4113 -2113 5952 -1800 647 111 1283 318 2038 665 152 69
570 283 760 387 469 259 951 553 1465 896 211 141 510 347 510 352 0 2 -123
95 -272 208 -1945 1457 -3378 2165 -4773 2357 -235 32 -756 58 -915 44z m520
-224 c1226 -84 2443 -574 3996 -1610 418 -279 1078 -756 1068 -772 -6 -9 -504
-340 -694 -460 -1486 -941 -2653 -1447 -3760 -1632 -370 -62 -627 -80 -1040
-73 -386 6 -611 28 -950 93 -1229 235 -2512 855 -4172 2015 -43 30 -78 57 -78
61 0 9 486 374 705 529 1371 974 2463 1512 3538 1744 443 95 958 134 1387 105z"/>
<path d="M5505 7920 c-908 -84 -1671 -719 -1906 -1589 -155 -575 -72 -1178
234 -1691 161 -269 422 -538 697 -715 646 -416 1514 -447 2190 -78 523 286
913 778 1065 1343 55 205 69 318 69 560 0 172 -4 251 -18 335 -104 625 -433
1136 -964 1494 -154 104 -418 220 -622 275 -215 58 -532 86 -745 66z"/>
</g>
</svg>
